#!OML:ASF F:\VICON\USERDATA\INSTALL\rory3\rory3.ASF
:FULLY-SPECIFIED
:DEGREES
228
root -3.21755 16.0897 26.273 160.271 -1.99123 -177.826
lowerback -8.86844 -3.48455 4.48919
upperback -7.3411 -6.10975 5.55304
thorax -2.52078 -3.59905 2.88008
lowerneck -5.60522 -9.02613 -9.21668
upperneck 39.6784 -5.45268 -3.72993
head 15.1065 -2.05722 -0.165886
rclavicle -1.43125e-014 -1.90833e-014
rhumerus -11.0737 43.8459 -96.1122
rradius 103.061
rwrist -13.4442
rhand -15.2833 -65.2808
rfingers 7.12502
rthumb -169.108 274.978
lclavicle -1.43125e-014 -1.90833e-014
lhumerus 50.3852 -1.84568 60.5
lradius 55.7272
lwrist 73.2342
lhand -39.2184 -3.63878
lfingers 7.12502
lthumb -12.2143 25.9846
rfemur -65.4494 -13.3672 38.5751
rtibia 82.4906
rfoot -1.42806 -9.51447
rtoes 3.89998
lfemur -23.2113 10.6334 -27.7111
ltibia 50.7876
lfoot -4.84949 -15.8639
ltoes 5.29718
229
root -3.20969 16.0717 26.2907 160.12 -2.32385 -177.562
lowerback -8.78932 -3.5432 4.67457
upperback -7.49007 -6.23072 5.73503
thorax -2.71846 -3.68275 2.98038
lowerneck -5.64117 -9.15413 -9.24125
upperneck 39.8895 -5.46724 -4.00261
head 15.2181 -2.07327 -0.277712
rclavicle -1.74931e-014 6.99722e-014
rhumerus -11.1894 43.9064 -96.169
rradius 102.531
rwrist -13.5361
rhand -15.5721 -65.0096
rfingers 7.12502
rthumb -169.387 274.722
lclavicle -1.74931e-014 6.99722e-014
lhumerus 50.2469 -1.95603 60.7361
lradius 54.8334
lwrist 72.6655
lhand -38.6728 -4.87695
lfingers 7.12502
lthumb -11.6881 24.777
rfemur -65.2247 -13.5047 38.7621
rtibia 82.6094
rfoot -1.69747 -9.59496
rtoes 4.13225
lfemur -23.3078 10.5592 -27.5163
ltibia 50.9898
lfoot -4.44003 -16.0941
ltoes 5.30838
230
root -3.2048 16.0575 26.3095 160.036 -2.33695 -177.299
lowerback -8.66209 -3.49262 5.10385
upperback -7.65421 -6.22647 5.91438
thorax -2.98672 -3.71948 2.96082
lowerneck -5.66585 -9.20785 -9.23269
upperneck 39.9802 -5.45075 -4.17817
head 15.2648 -2.07154 -0.349921
rclavicle -9.54166e-015 2.70347e-014
rhumerus -11.3151 44.0669 -96.3076
rradius 101.932
rwrist -13.6462
rhand -15.952 -64.6593
rfingers 7.12502
rthumb -169.753 274.39
lclavicle -9.54166e-015 2.70347e-014
lhumerus 50.0441 -1.92484 61.1457
lradius 54.2212
lwrist 71.7202
lhand -38.713 -3.47618
lfingers 7.12502
lthumb -11.7269 26.1756
rfemur -64.9045 -13.2557 39.0227
rtibia 82.548
rfoot -1.86346 -9.72199
rtoes 3.92792
lfemur -23.5106 10.7326 -27.2228
ltibia 51.2972
lfoot -4.35927 -16.2242
ltoes 4.40159
231
root -3.20313 16.0489 26.3217 159.917 -2.51679 -177.537
lowerback -8.79265 -3.51754 5.09363
upperback -7.62615 -6.26755 5.90952
thorax -2.88425 -3.73657 2.9437
lowerneck -5.64133 -9.18554 -9.16863
upperneck 39.7493 -5.47349 -4.24046
head 15.1345 -2.09744 -0.388647
rclavicle -1.74931e-014 -2.8625e-014
rhumerus -11.178 44.2724 -96.3804
rradius 101.265
rwrist -13.7165
rhand -16.1199 -64.1192
rfingers 7.12502
rthumb -169.916 273.858
lclavicle -1.74931e-014 -2.8625e-014
lhumerus 50.0532 -1.61722 61.7065
lradius 53.2789
lwrist 71.6813
lhand -37.3744 -5.62951
lfingers 7.12502
lthumb -10.4358 24.0915
rfemur -64.5674 -13.1366 38.6931
rtibia 82.5545
rfoot -3.10963 -10.1134
rtoes 8.8448
lfemur -23.5655 10.9293 -27.517
ltibia 51.605
lfoot -4.13161 -16.3155
ltoes 4.35329
232
root -3.19653 16.0294 26.3339 159.907 -2.82561 -177.587
lowerback -9.08454 -3.57484 5.14627
upperback -7.62881 -6.38501 5.95196
thorax -2.72603 -3.79974 2.92371
lowerneck -5.52261 -9.17714 -9.1953
upperneck 39.5389 -5.51707 -4.22148
head 15.0044 -2.12712 -0.376529
rclavicle -3.18055e-014 6.36111e-014
rhumerus -11.0407 44.3887 -96.427
rradius 100.663
rwrist -13.6679
rhand -15.944 -63.608
rfingers 7.12502
rthumb -169.746 273.338
lclavicle -3.18055e-014 6.36111e-014
lhumerus 50.0858 -1.44619 62.1729
lradius 52.4644
lwrist 70.929
lhand -37.1137 -7.04959
lfingers 7.12502
lthumb -10.1843 22.6839
rfemur -64.4333 -13.0861 38.6064
rtibia 82.6021
rfoot -3.381 -10.3324
rtoes 10.0503
lfemur -23.8894 11.0242 -27.6799
ltibia 52.0047
lfoot -3.68031 -16.5038
ltoes 4.91322
233
root -3.18808 15.9989 26.3416 159.822 -3.24753 -177.454
lowerback -9.16796 -3.6593 5.26899
upperback -7.73279 -6.53814 6.05187
thorax -2.79017 -3.89213 2.95229
lowerneck -5.36832 -9.2172 -9.28852
upperneck 39.484 -5.53971 -4.27951
head 14.9486 -2.14632 -0.379985
rclavicle -4.6118e-014 3.18055e-014
rhumerus -11.0979 44.4707 -96.5283
rradius 100.169
rwrist -13.5834
rhand -16.09 -63.5506
rfingers 7.12502
rthumb -169.887 273.288
lclavicle -4.6118e-014 3.18055e-014
lhumerus 49.9554 -1.47714 62.6683
lradius 51.8212
lwrist 69.6981
lhand -37.6063 -7.41115
lfingers 7.12502
lthumb -10.6596 22.2985
rfemur -64.3199 -13.2183 38.6936
rtibia 82.6869
rfoot -3.34046 -10.4685
rtoes 8.97429
lfemur -24.1909 11.0706 -27.6762
ltibia 52.4314
lfoot -3.43053 -16.8329
ltoes 4.67942
234
root -3.18123 15.9746 26.3518 159.753 -3.59607 -177.392
lowerback -9.21222 -3.70584 5.32957
upperback -7.87284 -6.63995 6.19114
thorax -2.90306 -3.95988 3.06597
lowerneck -5.13786 -9.27238 -9.37402
upperneck 39.3402 -5.56434 -4.45887
head 14.8278 -2.18184 -0.431546
rclavicle 2.70347e-014 2.54444e-014
rhumerus -11.1822 44.6419 -96.5536
rradius 99.6386
rwrist -13.6147
rhand -16.6085 -63.8544
rfingers 7.12502
rthumb -170.387 273.615
lclavicle 2.70347e-014 2.54444e-014
lhumerus 49.7666 -1.4527 63.3104
lradius 51.2777
lwrist 68.4778
lhand -37.9832 -5.26283
lfingers 7.12502
lthumb -11.0231 24.4277
rfemur -64.1628 -13.3461 38.7649
rtibia 82.6991
rfoot -3.40116 -10.5509
rtoes 7.7976
lfemur -24.4654 11.2353 -27.7157
ltibia 52.8057
lfoot -3.12351 -17.19
ltoes 4.10389
235
root -3.17605 15.9711 26.3746 159.852 -3.86021 -177.381
lowerback -9.49306 -3.73778 5.4597
upperback -7.9456 -6.74944 6.30898
thorax -2.82509 -4.03144 3.08894
lowerneck -5.16354 -9.26294 -9.35552
upperneck 39.2299 -5.54459 -4.54669
head 14.7744 -2.18765 -0.4681
rclavicle -5.24792e-014 1.59028e-014
rhumerus -11.0088 44.9066 -96.5116
rradius 98.943
rwrist -13.6406
rhand -16.8844 -63.8777
rfingers 7.12502
rthumb -170.653 273.65
lclavicle -5.24792e-014 1.59028e-014
lhumerus 49.7139 -1.30452 63.7216
lradius 50.5342
lwrist 67.6084
lhand -38.1993 -4.42528
lfingers 7.12502
lthumb -11.2315 25.2541
rfemur -64.007 -13.3413 38.8346
rtibia 82.5218
rfoot -3.34593 -10.6534
rtoes 6.53232
lfemur -24.8371 11.4358 -27.8021
ltibia 53.0277
lfoot -2.4826 -17.4591
ltoes 4.25953
236
root -3.17085 15.9798 26.4043 159.929 -4.14545 -177.37
lowerback -9.92681 -3.78919 5.70573
upperback -7.84513 -6.8856 6.33606
thorax -2.50492 -4.10544 2.92068
lowerneck -5.31128 -9.2775 -9.42006
upperneck 39.1053 -5.62162 -4.46594
head 14.7546 -2.24206 -0.442763
rclavicle -9.38264e-014 1.87653e-013
rhumerus -10.5448 45.1075 -96.3898
rradius 98.2146
rwrist -13.5387
rhand -17.0944 -63.5458
rfingers 7.12502
rthumb -170.856 273.328
lclavicle -9.38264e-014 1.87653e-013
lhumerus 49.9368 -1.12269 63.8351
lradius 49.5215
lwrist 66.7362
lhand -38.327 -6.19679
lfingers 7.12502
lthumb -11.3547 23.4758
rfemur -63.7652 -13.3474 38.8664
rtibia 82.2383
rfoot -3.52724 -10.7228
rtoes 6.31214
lfemur -25.0972 11.633 -27.8853
ltibia 53.1157
lfoot -1.6667 -17.7253
ltoes 5.03489
237
root -3.16645 15.9765 26.4249 159.894 -4.47076 -177.429
lowerback -9.65713 -3.85091 5.83386
upperback -8.09675 -6.97764 6.39925
thorax -2.9256 -4.17784 2.96374
lowerneck -4.99293 -9.39305 -9.72612
upperneck 38.9518 -5.75817 -4.52031
head 14.6347 -2.34411 -0.419825
rclavicle 1.09729e-013 -1.59028e-014
rhumerus -10.8768 45.3202 -96.6813
rradius 97.6922
rwrist -13.4422
rhand -17.3585 -63.2461
rfingers 7.12502
rthumb -171.111 273.039
lclavicle 1.09729e-013 -1.59028e-014
lhumerus 49.369 -1.08929 64.6014
lradius 48.5511
lwrist 65.2897
lhand -37.1293 -8.92735
lfingers 7.12502
lthumb -10.1993 20.8054
rfemur -63.4903 -13.4045 38.8037
rtibia 81.996
rfoot -3.44139 -10.8311
rtoes 6.78399
lfemur -25.2266 11.9162 -28.0313
ltibia 53.1961
lfoot -0.753111 -18.0455
ltoes 6.08295
238
root -3.1599 15.959 26.4379 159.814 -4.78688 -177.457
lowerback -9.41596 -3.93195 5.91376
upperback -8.25349 -7.08969 6.5066
thorax -3.2195 -4.25081 3.06713
lowerneck -5.45675 -9.32109 -9.50475
upperneck 39.0241 -5.55394 -4.83257
head 14.7433 -2.27657 -0.576549
rclavicle 1.59028e-015 -3.33958e-014
rhumerus -10.9612 45.5974 -96.7889
rradius 97.2396
rwrist -13.4473
rhand -17.3402 -62.7975
rfingers 7.12502
rthumb -171.093 272.589
lclavicle 1.59028e-015 -3.33958e-014
lhumerus 49.1694 -0.867499 65.1144
lradius 47.4498
lwrist 64.7099
lhand -35.5738 -12.0433
lfingers 7.12502
lthumb -8.69853 17.7575
rfemur -63.2601 -13.4481 38.8059
rtibia 81.8146
rfoot -3.25679 -10.9814
rtoes 7.1511
lfemur -25.3673 12.2631 -28.1239
ltibia 53.3552
lfoot 0.151442 -18.454
ltoes 7.36321
239
root -3.15257 15.9438 26.4535 159.784 -5.10982 -177.571
lowerback -9.08472 -4.00517 5.93873
upperback -8.48198 -7.17859 6.58989
thorax -3.63656 -4.31366 3.19584
lowerneck -5.55498 -9.38523 -9.45889
upperneck 39.0132 -5.55526 -5.12553
head 14.7487 -2.30827 -0.709643
rclavicle -5.725e-014 9.70069e-014
rhumerus -11.2512 45.8364 -97.0455
rradius 96.7775
rwrist -13.4513
rhand -17.2834 -62.315
rfingers 7.12502
rthumb -171.038 272.105
lclavicle -5.725e-014 9.70069e-014
lhumerus 48.9143 -0.612128 65.6112
lradius 46.5305
lwrist 64.5756
lhand -35.0263 -15.1963
lfingers 7.12502
lthumb -8.17016 14.6258
rfemur -63.0809 -13.5542 38.7745
rtibia 81.658
rfoot -3.02675 -10.9689
rtoes 7.20118
lfemur -25.5829 12.6513 -28.3179
ltibia 53.5712
lfoot 0.926722 -18.9142
ltoes 8.11093
240
root -3.14839 15.9324 26.4703 159.76 -5.47699 -177.861
lowerback -9.23435 -4.07491 5.85781
upperback -8.40589 -7.26529 6.57168
thorax -3.46506 -4.34308 3.19004
lowerneck -5.88088 -9.37623 -9.45479
upperneck 38.9173 -5.58912 -5.07788
head 14.7758 -2.34442 -0.711243
rclavicle -3.97569e-014 1.11319e-014
rhumerus -10.9205 46.0142 -96.932
rradius 96.2529
rwrist -13.4891
rhand -17.1758 -62.4591
rfingers 7.12502
rthumb -170.934 272.244
lclavicle -3.97569e-014 1.11319e-014
lhumerus 48.9915 -0.244392 66.2327
lradius 45.7524
lwrist 64.1749
lhand -34.5536 -18.0165
lfingers 7.12502
lthumb -7.71392 11.8228
rfemur -62.8787 -13.7434 38.5625
rtibia 81.481
rfoot -2.73393 -10.8134
rtoes 7.24123
lfemur -25.7741 13.09 -28.7201
ltibia 53.8015
lfoot 1.57521 -19.3028
ltoes 8.24265
241
root -3.14278 15.9245 26.4873 159.671 -5.85264 -178.087
lowerback -9.39993 -4.14798 5.79541
upperback -8.26579 -7.35584 6.57609
thorax -3.21612 -4.37081 3.18885
lowerneck -6.21981 -9.4267 -9.54703
upperneck 39.0322 -5.62928 -5.01059
head 14.9199 -2.37407 -0.691782
rclavicle -1.90833e-014 1.90833e-014
rhumerus -10.4415 46.2307 -96.6869
rradius 95.7657
rwrist -13.618
rhand -16.993 -62.833
rfingers 7.12502
rthumb -170.758 272.61
lclavicle -1.90833e-014 1.90833e-014
lhumerus 49.1777 0.190478 66.9269
lradius 45.082
lwrist 63.449
lhand -33.8489 -18.9226
lfingers 7.12502
lthumb -7.03374 10.9405
rfemur -62.6289 -13.9648 38.4022
rtibia 81.2896
rfoot -2.67962 -10.7927
rtoes 7.53427
lfemur -25.8827 13.7229 -29.0172
ltibia 54.0159
lfoot 2.37564 -19.7953
ltoes 8.69489
